<?xml version="1.0" standalone="no"?>
<!DOCTYPE svg PUBLIC "-//W3C//DTD SVG 20010904//EN"
 "http://www.w3.org/TR/2001/REC-SVG-20010904/DTD/svg10.dtd">
<svg version="1.0" xmlns="http://www.w3.org/2000/svg"
 width="1667.000000pt" height="1667.000000pt" viewBox="0 0 1667.000000 1667.000000"
 preserveAspectRatio="xMidYMid meet">
<metadata>
Created by potrace 1.14, written by Peter Selinger 2001-2017
</metadata>
<g transform="translate(0.000000,1667.000000) scale(0.100000,-0.100000)"
fill="#000000" stroke="none">
<path d="M10822 15420 c-44 -27 -68 -71 -82 -149 -19 -113 -79 -338 -130 -491
-94 -283 -238 -589 -423 -899 -80 -135 -109 -173 -228 -300 -329 -351 -850
-816 -1221 -1089 -54 -39 -104 -85 -113 -101 -13 -27 -15 -234 -15 -1853 0
-1801 0 -1823 20 -1856 11 -18 34 -41 52 -52 33 -20 58 -20 3518 -20 3376 0
3486 1 3520 19 20 10 44 36 57 61 l23 43 0 3291 c0 3187 -1 3292 -19 3332 -11
24 -33 50 -53 62 l-35 22 -2419 0 c-2396 0 -2419 0 -2452 -20z"/>
<path d="M982 8060 c-39 -9 -86 -50 -101 -89 -8 -18 -10 -977 -9 -3336 l3
-3310 22 -31 c13 -17 38 -39 57 -48 31 -15 324 -16 3510 -16 3465 0 3477 0
3516 20 26 13 47 34 60 60 20 39 20 47 18 3349 l-3 3310 -21 28 c-12 15 -36
37 -55 48 -34 20 -53 20 -3499 22 -1906 0 -3480 -3 -3498 -7z"/>
<path d="M8719 8060 c-43 -13 -76 -39 -93 -75 -15 -30 -16 -342 -16 -3343 l0
-3309 23 -34 c12 -19 38 -42 57 -51 33 -17 222 -18 3516 -18 l3481 0 33 23
c18 12 43 35 54 50 l21 28 3 3303 2 3302 -22 44 c-14 26 -37 53 -58 65 -35 20
-42 20 -3505 22 -1908 1 -3482 -2 -3496 -7z"/>
</g>
</svg>
